<svg xmlns="http://www.w3.org/2000/svg" width="1000" height="1000" fill="none"><path fill="#fff" d="M738.099 758.281h-31.193v-56.537h40.291c16.463 0 29.677-1.949 39.641-5.848 9.964-4.333 17.329-11.048 22.095-20.146 4.766-9.098 7.148-21.012 7.148-35.742l-1.949-48.738c0-16.03 1.949-30.327 5.848-42.891 4.333-12.563 9.965-23.394 16.897-32.492 7.365-9.098 16.246-16.03 26.644-20.795-10.831-6.066-20.146-13.431-27.944-22.095-7.365-9.098-12.997-19.279-16.896-30.543-3.899-11.698-5.849-24.478-5.849-38.341l1.3-54.588c0-16.896-4.116-29.46-12.347-37.691-7.799-8.665-19.929-12.997-36.392-12.997h-59.136V241h47.439c27.293 0 50.471 4.332 69.534 12.997 19.495 8.665 34.442 21.662 44.839 38.991 10.398 16.896 15.597 37.908 15.597 63.036l-1.3 55.887c0 13.863 1.733 24.694 5.199 32.492 3.466 7.798 8.881 13.431 16.246 16.896 7.365 3.466 16.247 5.199 26.644 5.199h20.795v57.187h-21.445c-9.531 0-17.762 1.516-24.694 4.549-6.932 2.599-12.347 8.231-16.246 16.896-3.466 8.232-5.199 20.362-5.199 36.392l1.949 59.136c.434 30.76-5.415 54.588-17.546 71.484-11.697 17.329-28.81 29.243-51.338 35.742-22.095 6.931-48.305 10.397-78.632 10.397ZM446.965 730.988l-67.584-29.244 200.154-432.15 66.285 33.792-198.855 427.602ZM261.108 758.281c-30.326 0-56.753-3.466-79.281-10.397-22.095-6.499-39.208-18.413-51.339-35.742-11.697-16.896-17.329-40.724-16.896-71.484l1.95-59.136c0-16.03-1.95-28.16-5.849-36.392-3.466-8.665-8.665-14.297-15.596-16.896-6.499-3.033-14.73-4.549-24.695-4.549H47.957v-57.187h20.795c10.831 0 19.713-1.733 26.644-5.199 7.365-3.465 12.781-9.098 16.247-16.896 3.466-7.798 5.198-18.629 5.198-32.492l-1.299-55.887c0-25.128 5.199-46.14 15.596-63.036 10.398-17.329 25.344-30.326 44.84-38.991C195.473 245.332 218.651 241 245.512 241h47.439v57.837h-59.136c-16.463 0-28.81 4.332-37.042 12.997-7.798 8.231-11.697 20.795-11.697 37.691l1.299 54.588c0 13.863-1.949 26.643-5.848 38.341-3.899 11.264-9.748 21.445-17.546 30.543-7.365 8.664-16.463 16.029-27.294 22.095 10.398 4.765 19.062 11.697 25.994 20.795 7.365 9.098 12.997 19.929 16.896 32.492 4.333 12.564 6.499 26.861 6.499 42.891l-1.95 48.738c0 14.73 2.383 26.644 7.149 35.742 4.765 9.098 12.13 15.813 22.095 20.146 10.397 3.899 23.611 5.848 39.64 5.848h40.291v56.537h-31.193Z"/></svg>