<?xml version="1.0" standalone="no"?>
<!DOCTYPE svg PUBLIC "-//W3C//DTD SVG 20010904//EN"
 "http://www.w3.org/TR/2001/REC-SVG-20010904/DTD/svg10.dtd">
<svg version="1.0" xmlns="http://www.w3.org/2000/svg"
 width="600.000000pt" height="600.000000pt" viewBox="0 0 600.000000 600.000000"
 preserveAspectRatio="xMidYMid meet">
<metadata>
Created by potrace 1.14, written by Peter Selinger 2001-2017
</metadata>
<g transform="translate(0.000000,600.000000) scale(0.100000,-0.100000)"
fill="#000000" stroke="none">
<path d="M1174 3872 c-23 -20 -77 -66 -120 -102 -43 -36 -90 -75 -104 -86 -14
-12 -99 -83 -190 -159 -91 -76 -187 -155 -213 -178 -26 -22 -63 -52 -82 -66
-19 -14 -34 -31 -35 -38 0 -6 21 -29 47 -50 27 -21 50 -40 53 -43 3 -3 32 -28
65 -55 33 -28 65 -54 71 -60 7 -5 29 -24 50 -42 22 -17 49 -39 61 -50 11 -10
40 -34 63 -52 24 -19 48 -40 54 -45 10 -10 103 -88 151 -127 33 -28 118 -99
147 -125 l28 -24 65 66 65 66 -32 28 c-30 26 -424 353 -527 439 -97 81 -96 77
-47 112 18 13 55 43 82 65 27 23 105 88 174 144 69 56 134 109 145 118 11 9
58 48 105 86 47 38 89 72 93 76 7 6 -115 141 -126 140 -1 0 -21 -17 -43 -38z"/>
<path d="M4715 3846 c-32 -34 -58 -66 -58 -70 1 -4 64 -59 140 -122 76 -64
147 -123 158 -132 11 -9 45 -37 75 -62 30 -25 63 -53 75 -63 11 -10 59 -50
107 -89 l87 -71 -51 -41 c-28 -22 -108 -88 -177 -145 -181 -149 -211 -174
-233 -193 -10 -9 -38 -31 -60 -50 -44 -35 -121 -98 -126 -103 -7 -6 113 -125
126 -125 6 0 25 11 40 24 36 32 288 242 342 286 24 19 48 40 54 45 6 6 65 56
131 110 66 55 122 102 125 105 3 3 26 22 53 43 26 21 47 42 47 46 0 4 -48 47
-107 96 -60 50 -112 95 -118 101 -5 6 -19 17 -31 25 -12 8 -48 38 -81 66 -33
29 -73 63 -89 75 -16 13 -38 31 -49 41 -11 10 -51 44 -90 75 -38 31 -86 71
-105 89 -19 17 -55 47 -80 66 l-46 35 -59 -62z"/>
<path d="M2103 3795 c-137 -38 -231 -114 -285 -233 -27 -58 -31 -79 -32 -157
-1 -100 17 -162 65 -229 l28 -39 -28 -33 c-91 -103 -118 -257 -62 -344 18 -28
57 -67 73 -72 6 -2 -14 -28 -45 -57 -67 -63 -96 -121 -104 -207 -20 -219 184
-338 567 -329 273 7 454 93 527 251 22 48 27 73 28 139 0 90 -21 145 -78 197
-79 75 -188 105 -413 113 -311 12 -329 15 -372 70 -24 30 -21 69 11 133 15 31
25 41 36 36 86 -37 140 -47 242 -47 246 1 430 144 455 354 5 35 8 66 7 69 -1
3 -4 26 -7 52 -5 39 -24 91 -54 151 -2 4 37 7 87 7 66 0 91 3 92 13 4 65 3
140 -1 147 -3 5 -111 11 -240 14 -129 3 -282 8 -340 11 -73 3 -121 0 -157 -10z
m242 -156 c50 -16 105 -60 131 -105 35 -59 44 -166 19 -230 -49 -130 -178
-189 -322 -149 -109 31 -173 117 -176 239 -2 112 70 218 168 245 73 20 120 20
180 0z m-63 -1024 c184 -6 252 -20 298 -63 51 -46 47 -145 -8 -205 -24 -27
-98 -62 -160 -77 -122 -29 -342 -7 -421 41 -90 55 -72 202 35 283 30 23 54 34
68 31 11 -2 96 -7 188 -10z"/>
<path d="M3170 3783 c0 -5 31 -48 68 -98 134 -180 348 -470 356 -483 6 -10
-52 -102 -84 -132 -3 -3 -34 -43 -70 -90 -35 -47 -66 -87 -69 -90 -3 -3 -35
-43 -70 -90 -36 -47 -87 -113 -114 -147 l-49 -63 135 0 135 0 157 225 c86 124
160 225 164 225 3 -1 77 -102 164 -225 l159 -225 134 0 c105 0 134 3 128 13
-9 15 -136 180 -144 187 -3 3 -37 45 -75 95 -39 49 -107 137 -152 194 -46 57
-80 108 -76 115 3 6 102 140 219 297 118 157 214 289 214 293 0 8 -233 6 -247
-2 -5 -4 -76 -106 -158 -227 -82 -121 -149 -221 -151 -223 -1 -2 -28 35 -60
82 -33 47 -104 151 -158 231 l-100 145 -128 0 c-70 0 -128 -3 -128 -7z"/>
</g>
</svg>
